<svg xmlns="http://www.w3.org/2000/svg" width="1888" height="1884" viewBox="0 0 1888 1884" fill="none">
  <defs>
    <linearGradient id="sage-orbit" x1="474" y1="412" x2="1418" y2="1472" gradientUnits="userSpaceOnUse">
      <stop stop-color="#14B8A6"/>
      <stop offset="1" stop-color="#2DD4BF"/>
    </linearGradient>
    <linearGradient id="sage-core" x1="715" y1="671" x2="1172" y2="1167" gradientUnits="userSpaceOnUse">
      <stop stop-color="#0F766E"/>
      <stop offset="1" stop-color="#115E59"/>
    </linearGradient>
  </defs>
  <rect x="342" y="284" width="1204" height="1204" rx="280" fill="#0F172A"/>
  <rect x="412" y="354" width="1064" height="1064" rx="240" fill="#1E293B"/>
  <circle cx="944" cy="886" r="330" stroke="url(#sage-orbit)" stroke-width="68"/>
  <path d="M1235 657C1165 582 1064 538 944 538C824 538 722 582 653 657" stroke="#5EEAD4" stroke-width="34" stroke-linecap="round"/>
  <path d="M1247 1119C1179 1203 1071 1258 944 1258C818 1258 709 1203 641 1119" stroke="#99F6E4" stroke-width="34" stroke-linecap="round"/>
  <circle cx="944" cy="886" r="196" fill="url(#sage-core)"/>
  <circle cx="944" cy="886" r="88" fill="#F1F5F9"/>
  <path d="M944 630V1142" stroke="#CCFBF1" stroke-width="28" stroke-linecap="round"/>
  <path d="M688 886H1200" stroke="#CCFBF1" stroke-width="28" stroke-linecap="round"/>
</svg>
