<svg version="1.2" xmlns="http://www.w3.org/2000/svg" viewBox="0 0 740 724" width="740" height="724">
	<style>
		.s0 { fill: #101b29 } 
		.s1 { fill: #fbfcfc } 
	</style>
	<g id="Background">
		<path id="Path 0" class="s0" d="m0 362v362h740v-724h-740z"/>
		<path id="Path 1" fill-rule="evenodd" class="s1" d="m259.5 20.73c1.65 0.31 4.35 1.23 6 2.06 1.65 0.82 5.7 3.33 9 5.56 3.3 2.24 13.65 10.07 40 30.75l6-0.62c3.3-0.34 9.26-1.04 13.25-1.55 3.99-0.51 10.18-0.93 13.75-0.93 3.57 0 10.89 0.47 16.25 1.04 5.36 0.58 11.55 1.54 17.75 3.23l16.5-12.97c9.07-7.13 19.2-14.78 22.5-16.99 3.3-2.22 7.8-4.93 10-6.03 2.2-1.1 5.24-2.29 6.75-2.64 1.51-0.35 4.66-0.14 7 0.46 2.7 0.71 5.62 2.53 8 5 2.63 2.74 4.36 5.91 5.79 10.65 1.12 3.71 2.7 11.14 3.5 16.5 0.98 6.55 1.46 17.96 1.46 59.75l2.83 5.25c1.55 2.89 4.48 9.53 10.19 24.25l14.74 0.02c9.02 0.02 16.68 0.55 19.74 1.36 2.75 0.73 8.15 2.28 12 3.44 3.85 1.15 10.15 3.63 14 5.51 3.85 1.87 9.02 4.8 11.5 6.51 2.48 1.71 5.35 3.79 6.39 4.63 1.04 0.84 3.49 2.88 5.43 4.53 1.94 1.65 6.41 6.37 9.93 10.5 3.9 4.58 8.08 11.01 10.72 16.5 2.38 4.95 4.94 11.03 5.68 13.5 0.84 2.78 1.35 9.46 1.34 30.5l-4.13 8.5c-3.06 6.28-5.94 10.33-11.04 15.5-5.55 5.63-8.86 7.95-16.86 11.86-5.48 2.67-10.86 5.23-11.96 5.67-1.1 0.45-6.27 2.81-11.5 5.23-6.02 2.8-11.46 6.22-14.84 9.33-2.94 2.7-6.47 7.16-7.84 9.91-2.15 4.33-2.34 5.47-1.4 8.5 0.59 1.93 3.77 7.1 7.06 11.5 3.29 4.4 6.27 9.35 6.61 11 0.34 1.65 0.35 4.8 0.02 7-0.33 2.2-1.28 4.9-2.1 6-1.45 1.94-1.62 1.87-5.75-2.59-2.34-2.53-8.15-9.06-12.9-14.5-4.75-5.45-16-16.94-25-25.53-9.59-9.15-18.7-18.87-22.02-23.5-3.11-4.33-7.23-11.03-9.15-14.88-1.92-3.85-4.43-10.15-5.57-14-1.17-3.92-2.1-9.86-2.1-13.5-0.02-5.78 0.39-7.16 3.73-12.53 2.06-3.32 4.94-7.6 6.4-9.5 1.46-1.91 3.95-5.72 5.54-8.47 1.59-2.75 4.06-7.7 5.49-11 1.44-3.3 3.39-9.82 4.35-14.5 1.28-6.23 1.59-10.9 1.16-17.5-0.33-4.95-1.25-11.47-2.06-14.5-0.81-3.03-2.19-7.53-3.08-10-0.89-2.47-4.03-9.45-12.33-26.5l-0.53-28c-0.28-15.4-1.03-31.38-1.65-35.5-0.63-4.12-1.54-8.85-2.04-10.5-0.49-1.65-1.6-3.34-2.45-3.75-0.85-0.41-2.56-0.24-3.8 0.38-1.24 0.61-4.5 2.78-7.25 4.8-2.75 2.03-12.43 9.27-21.5 16.09-9.07 6.81-17.4 13.22-18.5 14.23-1.1 1.02-2.9 2.08-4 2.37-1.1 0.28-5.37-0.03-9.5-0.7-4.12-0.66-15.82-1.4-26-1.64-13.47-0.32-21.35-0.01-29 1.11-9.68 1.43-10.7 1.42-13-0.1-1.37-0.91-5.69-4.16-9.59-7.22-3.9-3.06-8.61-6.69-10.45-8.07-1.84-1.37-4.73-3.65-6.41-5.06-1.68-1.41-4.62-3.64-6.55-4.96-1.93-1.31-3.73-2.67-4-3.02-0.27-0.34-2.98-2.28-6-4.3-3.02-2.02-6.06-3.67-6.75-3.66-0.69 0-1.85 1.24-2.59 2.75-0.73 1.51-1.82 5.23-2.43 8.25-0.6 3.02-1.36 7.52-1.69 10-0.33 2.47-0.98 16.65-2.31 58.5l-3.95 8c-2.17 4.4-5.36 11.6-7.1 16-1.73 4.4-3.82 10.93-4.65 14.5-0.82 3.57-1.5 9.43-1.5 13 0 3.57 0.68 9.43 1.51 13 0.82 3.57 2.66 9.43 4.08 13 1.42 3.57 3.72 8.53 5.12 11 1.39 2.47 4.91 7.88 7.81 12 2.91 4.13 6.23 9.64 7.37 12.25 1.14 2.61 2.08 6.55 2.08 8.75 0 2.2-0.93 7.49-2.06 11.75-1.13 4.26-2.67 9.55-3.43 11.75-0.75 2.2-2.57 7.15-4.04 11-1.47 3.85-4.46 11.95-6.63 18-2.18 6.05-5.24 14.82-6.8 19.5-1.57 4.68-4.26 13.23-5.98 19-1.72 5.77-3.61 12.3-4.21 14.5-0.59 2.2-1.59 5.26-2.22 6.79-0.62 1.53-1.47 2.77-1.88 2.75-0.41-0.02-1.67-1.05-2.8-2.29-1.13-1.24-2.71-3.71-3.5-5.5-0.81-1.8-1.45-6.26-1.44-10 0-3.87 1.05-10.8 2.45-16.25 1.35-5.23 4.02-14.23 5.95-20 1.93-5.77 6.03-17.7 9.12-26.5 3.09-8.8 6.21-18.02 6.93-20.5 0.72-2.47 1.93-7.3 2.68-10.72 1.3-5.93 1.26-6.33-0.74-8.5-1.16-1.25-4.26-5.65-6.89-9.78-2.63-4.13-6.46-10.65-8.5-14.5-2.04-3.85-4.87-10.6-6.29-15-1.42-4.4-3.06-10.36-3.65-13.25-0.59-2.89-1.07-9.07-1.07-13.75 0-4.68 0.66-11.31 1.47-14.75 0.8-3.44 2.31-8.72 3.36-11.75 1.04-3.03 4.21-10.34 12.17-27v-27.5c0-19.59 0.45-30.59 1.55-38.25 1.04-7.14 2.46-12.6 4.25-16.25 1.81-3.68 4.02-6.37 6.7-8.14 2.2-1.45 6.03-3.32 8.5-4.16 2.47-0.84 5.85-1.28 7.5-0.97zm45 112.28c0.55-0.03 2.69 0.63 4.75 1.47 2.06 0.83 4.65 2.87 5.75 4.52 1.1 1.65 1.99 4.46 1.97 6.25-0.01 1.82-1.04 4.57-2.33 6.25-1.26 1.65-3.61 3.6-5.22 4.34-1.76 0.81-4.41 1.11-6.67 0.75-2.61-0.41-4.66-1.65-6.75-4.09-2.15-2.51-3.01-4.56-3.03-7.25-0.02-2.15 0.8-4.97 1.94-6.62 1.09-1.57 3.47-3.47 5.29-4.21 1.81-0.74 3.75-1.37 4.3-1.41zm85.87 1.99c2.85 0 5.69 0.71 7.38 1.85 1.51 1.02 3.38 3.39 4.15 5.25 1.12 2.71 1.17 4.17 0.25 7.15-0.63 2.06-2.39 4.67-3.9 5.78-1.88 1.4-4.25 2.03-7.5 2-4.07-0.03-5.25-0.53-8.25-3.53-2.9-2.9-3.48-4.17-3.36-7.43 0.11-2.9 1-4.86 3.38-7.5 2.81-3.11 3.81-3.57 7.85-3.57zm-41.37 12.53c1.93 0.25 4.18 0.47 5 0.49 0.82 0.02 2.4 0.72 3.5 1.55 1.57 1.19 2.14 3.17 2.65 9.22 0.36 4.24 0.93 8.95 1.85 13.21h-15c-13.61 0-15-0.16-15.03-1.75-0.02-0.96 0.89-2.65 2.03-3.75 1.65-1.6 2.05-3.19 2-8-0.05-4.5 0.38-6.43 1.72-7.74 0.98-0.95 3.13-2.17 4.78-2.7 1.65-0.54 4.57-0.78 6.5-0.53zm-147.75 61.55c1.18-0.05 2.12 1.14 2.9 3.67 0.63 2.06 3.03 7.8 5.34 12.75 2.31 4.95 6.36 12.37 9 16.5 2.64 4.12 6.42 9.44 8.41 11.8 3.13 3.74 3.4 4.47 2.1 5.57-0.82 0.7-4.65 2.67-8.5 4.36-3.85 1.7-9.25 4.08-12 5.29-2.75 1.21-7.36 3.28-10.25 4.59-2.89 1.32-5.48 2.39-5.75 2.39-0.28 0-3.31 1.3-6.75 2.89-3.44 1.59-8.28 3.79-10.75 4.87-2.48 1.09-7.2 3.14-10.5 4.55-3.3 1.4-11.74 5.06-18.75 8.12-7.01 3.07-12.97 5.57-13.25 5.57-0.28 0-2.86 1.06-5.75 2.35-2.89 1.3-6.15 2.66-7.25 3.02-1.11 0.37-4.45-0.18-7.5-1.25-3.03-1.05-16.3-5.39-29.5-9.64-13.2-4.24-29.77-9.58-36.82-11.85-7.05-2.27-12.82-4.58-12.82-5.13 0-0.55 8.47-4.53 18.82-8.83 10.35-4.31 22.64-9.43 27.32-11.38 4.67-1.94 9.96-4.15 11.75-4.91 1.79-0.76 4.71-2.01 6.5-2.78 1.79-0.77 7.3-3.06 12.25-5.09 4.95-2.02 10.46-4.32 12.25-5.1 1.79-0.77 4.71-2.05 6.5-2.84 1.79-0.78 9.55-3.98 17.25-7.11 7.7-3.12 15.8-6.48 18-7.46 2.2-0.99 9.18-3.91 15.5-6.49 6.32-2.59 12.85-5.29 14.5-6.02 1.65-0.72 3.68-1.54 4.5-1.82 0.82-0.28 2.29-0.55 3.25-0.59zm410.23 32.92c0.83 0 10.86 3.77 22.27 8.38 11.41 4.62 25.92 10.51 32.25 13.1 6.33 2.59 12.85 5.3 14.5 6.01 1.65 0.72 6.6 2.76 11 4.54 4.4 1.79 8.67 3.85 9.5 4.58 1.33 1.19 1.33 1.38 0 1.75-0.83 0.24-10.73 3.38-22 6.98-11.28 3.61-23.65 7.54-27.5 8.74-3.85 1.2-13.75 4.37-37 11.94l-10.5-4.17c-5.78-2.29-10.95-4.47-11.5-4.85-0.55-0.37-4.77-2.21-9.39-4.09-4.61-1.88-8.54-3.75-8.75-4.16-0.2-0.41 1.33-1.52 3.39-2.46 2.06-0.93 7.83-5.77 12.82-10.75 7.33-7.3 9.89-10.68 13.28-17.54 2.32-4.68 4.46-10.07 4.76-12 0.3-1.93 0.72-4.06 0.94-4.75 0.22-0.69 1.09-1.25 1.93-1.25zm3.02 71.99c0.55-0.03 5.05 4.06 10 9.09 4.95 5.03 9.45 9.69 10 10.34 0.55 0.65 5.05 5.44 10.01 10.63 4.95 5.2 16.91 17.77 26.57 27.95 9.66 10.18 21.7 23 26.76 28.5 5.06 5.5 8.85 10.28 8.43 10.63-0.42 0.35-31.15 15.93-68.27 34.62-37.13 18.7-90.34 45.53-118.25 59.62-27.91 14.1-51.43 25.63-52.25 25.63-0.83 0-9.71-8.44-19.74-18.75-10.03-10.31-30.49-31.12-45.47-46.25-14.98-15.12-27.24-28.06-27.26-28.75-0.02-0.69 2.11-2.29 4.72-3.57 2.61-1.28 13.75-6.96 24.75-12.62 11-5.66 26.75-13.78 35-18.05 8.25-4.26 24.45-12.6 36-18.52 11.55-5.92 28.2-14.46 37-18.98 8.8-4.52 27.02-13.88 40.5-20.79 13.47-6.91 32.6-16.64 42.5-21.62 9.9-4.97 18.45-9.07 19-9.11zm-497.52 1.06l42.76 21.62c23.52 11.9 68.63 34.56 100.26 50.37 31.62 15.81 66.39 33.07 77.25 38.35 10.86 5.29 19.64 10.02 19.5 10.52-0.14 0.5-13.96 15.01-30.71 32.25-16.76 17.24-37.01 37.98-45 46.1-8 8.12-14.88 14.76-15.29 14.75-0.41 0-19.76-9.4-43-20.88-23.24-11.47-52.38-25.83-64.75-31.91-12.38-6.08-37.58-18.45-56-27.5-18.43-9.05-41.83-20.51-52-25.46-10.18-4.95-19.51-9.28-20.75-9.63-1.24-0.35-2.45-1.19-2.69-1.88-0.24-0.69 2.12-3.98 5.25-7.32 3.13-3.34 13.78-14.59 23.67-25 9.9-10.41 21.6-22.74 26-27.41 4.41-4.66 12.07-12.75 17.02-17.97 4.95-5.22 11.13-11.63 13.74-14.25zm248.72 144.22c0.2 0.13 0.35 52.55 0.33 116.49-0.02 102.46 0.15 116.31 1.47 116.75 0.83 0.27 9.26-3.39 18.75-8.13 9.49-4.75 26.93-13.58 38.75-19.63 11.83-6.05 27.8-14.26 35.5-18.24 7.7-3.98 22.78-11.75 33.5-17.27 10.73-5.51 24.9-12.82 31.5-16.23 6.6-3.41 24.38-12.52 39.5-20.25 15.13-7.72 28.31-14.76 29.3-15.65 1.67-1.5 1.79-4.44 1.75-44.1-0.03-23.38 0.06-42.59 0.2-42.7 0.14-0.11 4.41-2.25 9.5-4.75 5.09-2.5 9.7-4.55 10.25-4.55 0.66 0 0.98 18.54 0.89 107.5l-15.19 7.55c-8.36 4.15-33.65 16.92-56.2 28.38-22.55 11.46-41.45 21.17-42 21.58-0.55 0.41-16.97 8.85-36.5 18.75-19.52 9.9-41.35 21.04-48.5 24.74-7.15 3.7-21.32 11-31.5 16.22-18 9.23-18.58 9.44-21.5 8.06-1.65-0.78-15.15-7.63-30-15.22-14.85-7.6-33.75-17.29-42-21.56-8.25-4.26-24-12.37-35-18.01-11-5.65-25.85-13.29-33-16.99-7.15-3.7-21.77-11.24-32.5-16.75-10.72-5.51-30.75-15.74-44.5-22.75-13.75-7-25.58-13.24-26.29-13.86-1.03-0.91-1.29-11.84-1.25-53.39 0.02-28.74 0.38-52.44 0.79-52.68 0.41-0.23 33.71 15.97 74 36 40.29 20.04 73.81 36.44 74.5 36.47 0.69 0.02 15.87-14.94 33.75-33.25 17.87-18.31 38.98-39.93 46.91-48.03 7.93-8.11 14.59-14.63 14.79-14.5z"/>
		<path id="Path 2" class="s0" d="m480 169.25c0 7.68-0.59 15.98-1.41 19.75-0.78 3.57-2.38 9.2-3.55 12.5-1.18 3.3-3.84 9.15-5.93 13-2.08 3.85-6.33 11.16-9.45 16.25-3.57 5.83-5.66 10.36-5.66 12.25 0 1.65 1.13 6.26 2.5 10.25 1.38 3.99 3.07 7.85 3.75 8.59 1.03 1.1 1.77 0.66 4.19-2.5 1.62-2.11 5.44-6.33 8.5-9.38 3.06-3.05 8.93-7.82 13.06-10.61 4.12-2.79 11.68-7.27 16.79-9.96 5.47-2.88 9.29-5.51 9.28-6.39-0.01-0.84-1.67-2.03-3.8-2.72-2.07-0.68-6.02-1.83-8.77-2.56l-5-1.34c0.39-6.49 0.95-9.5 1.5-10.88 0.73-1.82 1.75-2.5 3.75-2.49 1.51 0 5.68 0.74 9.25 1.63 3.58 0.89 8.52 2.64 11 3.89 2.48 1.25 5.48 3.1 6.67 4.12 1.19 1.02 2.88 3.54 3.75 5.6 0.87 2.06 1.58 4.54 1.58 5.5 0.01 0.96-1.12 3.44-2.5 5.5-1.37 2.06-4.86 5.22-7.75 7.01-2.89 1.79-10.65 5.95-17.25 9.24-9.49 4.73-13.55 7.44-19.41 12.99-4.08 3.85-9.11 9.71-11.19 13.01-3.11 4.95-3.59 6.35-2.7 8 0.6 1.1 5.86 6.85 11.69 12.77 5.84 5.92 11.17 10.76 11.86 10.75 0.69-0.01 2.15-2.04 3.25-4.52 1.13-2.55 5.36-7.9 9.75-12.34 6.37-6.43 9.36-8.59 16.75-12.08 4.95-2.34 9.9-4.63 11-5.09 1.1-0.46 4.25-1.65 7-2.65 2.75-1 8.15-3.87 12-6.39 3.85-2.51 8.4-6.34 10.12-8.51 1.71-2.17 4.02-5.74 5.13-7.94 1.1-2.2 2.55-7.15 3.21-11 0.93-5.39 0.94-8.38 0.04-13-0.64-3.3-1.84-8.03-2.65-10.5-0.81-2.47-3.43-7.65-5.81-11.5-2.38-3.85-6.74-9.43-9.68-12.39-2.95-2.96-8.51-7.44-12.36-9.94-3.85-2.5-9.92-5.84-13.5-7.41-3.58-1.57-7.4-3.25-8.5-3.73-1.1-0.49-5.04-1.82-8.75-2.96-3.71-1.14-9.9-2.75-13.75-3.57-3.85-0.82-9.48-1.5-12.5-1.5h-5.5z"/>
	</g>
</svg>